<svg height="477.60001pt" viewBox="0 0 477.60001 477.60001" width="477.60001pt" xmlns="http://www.w3.org/2000/svg"><path d="m477.601562 238.800781c0 131.886719-106.914062 238.800781-238.800781 238.800781s-238.800781-106.914062-238.800781-238.800781 106.914062-238.800781 238.800781-238.800781 238.800781 106.914062 238.800781 238.800781zm0 0" fill="#382b73"/><path d="m445.398438 238.800781c0 114.101563-92.496094 206.597657-206.597657 206.597657-114.101562 0-206.597656-92.496094-206.597656-206.597657 0-114.101562 92.496094-206.597656 206.597656-206.597656 114.101563 0 206.597657 92.496094 206.597657 206.597656zm0 0" fill="#473080"/><path d="m373.390625 310.632812-48.070313-48.074218c12.679688-17.546875 20.171876-39.089844 20.171876-62.394532 0-58.523437-47.117188-106.042968-105.488282-106.691406-.117187 0-.230468.007813-.34375.007813-.03125 0-.058594-.003907-.089844-.007813-.257812-.003906-.511718.019532-.773437.019532-57.832031.019531-105.894531 47.214843-106.683594 105.179687-.425781 31.105469 12.460938 59.203125 33.328125 78.964844 13.730469 13.003906 21.984375 30.742187 21.984375 49.652343v3.773438c0 6.546875 5.308594 11.855469 11.855469 11.855469h-.714844v44.148437h.027344c.246094 6.554688 5.621094 11.796875 12.234375 11.796875h10.3125v1.417969c0 2.902344 1.046875 5.558594 2.777344 7.617188.351562.417968.734375.804687 1.136719 1.167968.34375.3125.703124.605469 1.082031.875.390625.277344.789062.535156 1.210937.765625 1.679688.914063 3.601563 1.429688 5.648438 1.429688h11.609375c6.546875 0 11.855469-5.308594 11.855469-11.851563v-1.421875h10.3125c6.613281 0 11.988281-5.238281 12.238281-11.792969h.023437v-44.148437h-.714844c6.546876 0 11.855469-5.308594 11.855469-11.859375v-2.558594c0-10.066406 2.265625-19.808594 6.371094-28.746094 1.027344-2.234374 2.179687-4.417968 3.433594-6.546874l45.417969 45.417968c3.203124 3.199219 8.386718 3.199219 11.585937 0l16.410156-16.410156c3.199219-3.203125 3.199219-8.390625-.003906-11.585938zm0 0" fill="#382b73"/><path d="m345.496094 186.160156c0-58.523437-47.121094-106.042968-105.492188-106.6875-58.367187-.644531-107.09375 46.832032-107.890625 105.199219-.421875 31.105469 12.460938 59.203125 33.328125 78.964844 13.730469 13.003906 21.988282 30.742187 21.988282 49.652343v3.773438c0 6.546875 5.304687 11.855469 11.855468 11.855469h79.03125c6.550782 0 11.859375-5.308594 11.859375-11.855469v-2.558594c0-19.539062 8.46875-37.875 22.554688-51.410156 20.195312-19.414062 32.765625-46.703125 32.765625-76.933594zm0 0" fill="#009add"/><path d="m307.335938 186.160156c0-58.523437-30.269532-106.042968-67.765626-106.6875-37.492187-.644531-68.789062 46.832032-69.300781 105.199219-.273437 31.105469 8.003907 59.203125 21.40625 78.964844 8.820313 13.003906 14.121094 30.742187 14.121094 49.652343v3.773438c0 6.546875 3.410156 11.855469 7.617187 11.855469h50.769532c4.203125 0 7.613281-5.308594 7.613281-11.855469v-2.558594c0-19.539062 5.441406-37.875 14.492187-51.410156 12.972657-19.414062 21.046876-46.703125 21.046876-76.933594zm0 0" fill="#1caee4"/><path d="m266.769531 384.859375h-55.941406c-6.769531 0-12.261719-5.492187-12.261719-12.261719v-43.679687h80.464844v43.679687c0 6.769532-5.488281 12.261719-12.261719 12.261719zm0 0" fill="#f7cb15"/><path d="m244.605469 398.132812h-11.609375c-6.546875 0-11.855469-5.308593-11.855469-11.855468v-1.417969h35.320313v1.417969c-.003907 6.546875-5.308594 11.855468-11.855469 11.855468zm0 0" fill="#f7cb15"/><path d="m244.605469 392.207031h-11.609375c-4.949219 0-9.183594-3.039062-10.957032-7.347656h-.898437v1.417969c0 6.546875 5.308594 11.855468 11.851563 11.855468h11.609374c6.546876 0 11.855469-5.308593 11.855469-11.855468v-1.417969h-.898437c-1.773438 4.308594-6.003906 7.347656-10.953125 7.347656zm0 0" fill="#e7ad27"/><path d="m253.097656 384.859375h-28.59375c-5.199218 0-9.410156-4.214844-9.410156-9.414063v-46.527343h47.417969v46.527343c0 5.199219-4.214844 9.414063-9.414063 9.414063zm0 0" fill="#fede3a"/><path d="m198.566406 339.289062h80.464844v13.152344h-80.464844zm0 0" fill="#e7ad27"/><path d="m198.566406 359.914062h80.464844v13.152344h-80.464844zm0 0" fill="#e7ad27"/><path d="m319.386719 252.625c-2.761719-2.757812-6.992188-3.125-10.160157-1.125l-8.585937-8.585938c8.386719-12.136718 13.308594-26.847656 13.308594-42.714843 0-41.5625-33.691407-75.253907-75.253907-75.253907s-75.253906 33.691407-75.253906 75.253907 33.691406 75.253906 75.253906 75.253906c16.007813 0 30.832032-5.011719 43.027344-13.53125l8.542969 8.542969c-.261719.414062-.496094.835937-.675781 1.28125-.199219.492187-.351563 1-.449219 1.519531-.199219 1.03125-.199219 2.09375 0 3.128906.097656.515625.25 1.023438.449219 1.515625.398437.988282 1 1.910156 1.800781 2.710938l5.148437 5.148437c3.863282-8.410156 9.359376-16.113281 16.1875-22.675781 2.914063-2.800781 5.648438-5.785156 8.230469-8.898438zm0 0" fill="#136da0"/><path d="m289.570312 221.835938 22.960938 22.960937-18.964844 18.964844-22.960937-22.960938zm0 0" fill="#fff"/><path d="m270.601562 240.804688 6.675782-6.675782 22.960937 22.957032-6.675781 6.675781zm0 0" fill="#e6e7e8"/><path d="m303.417969 235.6875-13.847657-13.847656-18.960937 18.964844 13.890625 13.890624c7.382812-5.15625 13.796875-11.59375 18.917969-19.007812zm0 0" fill="#bcbec0"/><path d="m255.992188 116.984375c-40.449219-9.550781-80.980469 15.496094-90.53125 55.945313-9.550782 40.445312 15.496093 80.976562 55.945312 90.527343 40.445312 9.554688 80.980469-15.496093 90.53125-55.941406 9.550781-40.449219-15.496094-80.980469-55.945312-90.53125zm0 0" fill="#ef5a9d"/><path d="m302.304688 190.199219c0 35.128906-28.480469 63.609375-63.609376 63.609375-35.128906 0-63.605468-28.480469-63.605468-63.609375 0-35.128907 28.476562-63.605469 63.605468-63.605469 35.128907 0 63.609376 28.476562 63.609376 63.605469zm0 0" fill="#e43d91"/><path d="m256.289062 139.996094c-27.734374-9.71875-58.09375 4.886718-67.8125 32.617187-9.71875 27.734375 4.882813 58.097657 32.617188 67.816407s58.09375-4.886719 67.8125-32.621094-4.882812-58.09375-32.617188-67.8125zm0 0" fill="#fff"/><path d="m345.394531 324.628906-54.003906-54.007812c-3.199219-3.195313-3.199219-8.386719 0-11.582032l16.410156-16.414062c3.203125-3.199219 8.386719-3.199219 11.585938 0l54.003906 54.007812c3.203125 3.199219 3.203125 8.386719 0 11.582032l-16.410156 16.414062c-3.199219 3.195313-8.382813 3.195313-11.585938 0zm0 0" fill="#ef5a9d"/><path d="m352.050781 317.972656-54.003906-54.007812c-3.199219-3.195313-3.199219-8.386719 0-11.582032l-6.65625 6.65625c-3.199219 3.199219-3.199219 8.386719 0 11.582032l54.003906 54.007812c3.199219 3.199219 8.386719 3.199219 11.585938 0l6.65625-6.65625c-3.199219 3.199219-8.386719 3.199219-11.585938 0zm0 0" fill="#e43d91"/><path d="m319.5625 242.800781 6.863281 6.859375-27.996093 27.996094-6.859376-6.859375zm0 0" fill="#e43d91"/><path d="m275.179688 183.3125c.121093-.292969.203124-.59375.292968-.898438.066406-.21875.148438-.4375.199219-.664062.085937-.375.125-.757812.160156-1.136719.011719-.152343.035157-.300781.042969-.449219.019531-.445312-.007812-.890624-.054688-1.335937-.007812-.078125-.011718-.15625-.023437-.234375-.0625-.496094-.171875-.976562-.320313-1.457031-.007812-.027344-.015624-.054688-.023437-.082031-.160156-.507813-.363281-1-.617187-1.480469-.414063-.792969-.914063-1.550781-1.578126-2.21875-3.539062-3.539063-9.285156-3.539063-12.820312 0l-32.84375 32.84375-14.640625-14.640625c-3.535156-3.539063-9.28125-3.539063-12.820313 0-.664062.667968-1.164062 1.425781-1.578124 2.21875-.253907.480468-.457032.972656-.617188 1.480468-.007812.027344-.015625.054688-.027344.082032-.144531.480468-.253906.960937-.316406 1.457031-.015625.078125-.015625.15625-.027344.234375-.042968.445312-.070312.890625-.050781 1.339844.007813.148437.03125.292968.042969.441406.035156.386719.074218.765625.160156 1.140625.050781.226563.128906.445313.195312.667969.09375.300781.175782.601562.296876.894531.128906.304687.304687.59375.46875.886719.113281.203125.203124.414062.335937.609375.320313.480469.691406.941406 1.117187 1.367187l21.050782 21.050782c1.765625 1.769531 4.089844 2.65625 6.410156 2.65625 2.316406 0 4.640625-.886719 6.410156-2.65625l39.253906-39.253907c.425782-.425781.792969-.886719 1.117188-1.371093.132812-.195313.222656-.40625.335938-.605469.164062-.296875.335937-.582031.46875-.886719zm0 0" fill="#d1d3d4"/><path d="m227.59375 221.285156c-2.320312 0-4.640625-.886718-6.410156-2.65625l-21.050782-21.050781c-3.539062-3.539063-3.539062-9.277344 0-12.816406 3.539063-3.542969 9.28125-3.542969 12.820313 0l14.640625 14.636719 32.84375-32.84375c3.535156-3.539063 9.28125-3.539063 12.820312 0 3.539063 3.542968 3.539063 9.28125 0 12.820312l-39.253906 39.253906c-1.769531 1.769532-4.089844 2.65625-6.410156 2.65625zm0 0" fill="#1caee4"/><path d="m273.257812 168.1875-39.253906 39.253906c-1.769531 1.769532-4.09375 2.652344-6.410156 2.652344-2.320312 0-4.644531-.886719-6.410156-2.652344l-21.050782-21.050781c-.253906-.253906-.449218-.542969-.667968-.816406-2.816406 3.558593-2.617188 8.71875.667968 12.003906l21.050782 21.050781c1.765625 1.769532 4.089844 2.65625 6.410156 2.65625 2.316406 0 4.640625-.886718 6.410156-2.65625l39.253906-39.253906c3.285157-3.285156 3.480469-8.445312.664063-12.003906-.214844.273437-.410156.5625-.664063.816406zm0 0" fill="#009add"/></svg>